<?xml version="1.0" encoding="utf-8"?>
<!-- Generator: Adobe Illustrator 18.0.0, SVG Export Plug-In . SVG Version: 6.00 Build 0)  -->
<!DOCTYPE svg PUBLIC "-//W3C//DTD SVG 1.1//EN" "http://www.w3.org/Graphics/SVG/1.1/DTD/svg11.dtd">
<svg version="1.1" id="Слой_1" xmlns="http://www.w3.org/2000/svg" xmlns:xlink="http://www.w3.org/1999/xlink" x="0px" y="0px"
	 viewBox="264.3 0 236.8 211" enable-background="new 264.3 0 236.8 211" xml:space="preserve">
<g>
	<path fill="#FFCE1B" d="M358.1,1.6h54.6v27.3h-54.6V1.6z"/>
	<path fill="#FFCE1B" d="M385.5,79.8c-13,0-23.8,9.5-26,21.9h52C409.3,89.3,398.5,79.8,385.5,79.8z"/>
	<path fill="#C7C7C7" d="M350.4,101.8c2.3-17.4,17.1-31,35.1-31c18,0,32.8,13.6,35.1,31h46.8V6.2c0-2.5-2-4.6-4.6-4.6h-41v31.9
		c0,2.5-2,4.6-4.6,4.6h-63.7c-2.5,0-4.6-2-4.6-4.6V1.6h-41c-2.5,0-4.6,2-4.6,4.6v95.6H350.4z"/>
	<path fill="#FFCE1B" d="M385.5,132.8c13,0,23.8-9.5,26-21.9h-52C361.6,123.3,372.4,132.8,385.5,132.8z"/>
	<path fill="#C7C7C7" d="M420.6,110.9c-2.3,17.4-17.1,31-35.1,31c-18,0-32.8-13.6-35.1-31h-46.8v95.6c0,2.5,2,4.6,4.6,4.6h41v-31.9
		c0-2.5,2-4.6,4.6-4.6h63.7c2.5,0,4.6,2,4.6,4.6V211h41c2.5,0,4.6-2,4.6-4.6v-95.6H420.6z"/>
	<path fill="#FFCE1B" d="M358.1,183.7h54.6V211h-54.6V183.7z"/>
</g>
</svg>
