<?xml version="1.0" encoding="utf-8"?>
<!-- Generator: Adobe Illustrator 18.0.0, SVG Export Plug-In . SVG Version: 6.00 Build 0)  -->
<!DOCTYPE svg PUBLIC "-//W3C//DTD SVG 1.1//EN" "http://www.w3.org/Graphics/SVG/1.1/DTD/svg11.dtd">
<svg version="1.1" id="Слой_1" xmlns="http://www.w3.org/2000/svg" xmlns:xlink="http://www.w3.org/1999/xlink" x="0px" y="0px"
	 viewBox="264.3 0 236.8 211" enable-background="new 264.3 0 236.8 211" xml:space="preserve">
<g>
	<circle fill="#C7C7C7" cx="364.6" cy="154.9" r="3.6"/>
	<path fill="#C7C7C7" d="M359.6,79.3h0.3c22.3,0,41.9-18.1,41.8-38.9c0-2.9-0.3-5.7-0.8-8.3l4.4-0.5l-3.6-5.4l-2.3,0.5
		C394.7,11.7,382.1,1.9,366,1.9h-0.3c-20.6,2.3-38.8,15.4-41.5,34.1l-1,0l-2.2,6.1l2.9-0.5C324.5,63.5,339.4,79.3,359.6,79.3z
		 M365.8,11h0.2c11.3,0,20.3,6.5,24.4,16.7l-8.5,0.9l-16.4,1.9v0l-32.5,4.4C336.1,21.7,350.7,13.3,365.8,11z M334.1,40.4
		c1.3,6,6.2,10.3,12.4,9.5c6.3-0.8,11.7-6.2,11.7-12.4l8.3-1c1.3,6,6.2,10.2,12.4,9.4c6.3-0.8,11.7-6.3,11.7-12.4l1.3-0.3
		c0.5,2.3,0.7,4.7,0.7,7.2c0,15.7-15.7,29.9-32.9,29.9h-0.2c-15.5,0-26.7-12.5-26.8-29.6L334.1,40.4z"/>
	<path fill="#FFCE1B" d="M363.3,61.4c5.8,0,11.4-3.2,11.4-7.1c0-3.9-3.8-1.2-9.6-1.2c-5.8,0-11.4-2.7-11.4,1.2
		C353.7,58.2,357.5,61.4,363.3,61.4z"/>
	<path fill="#C7C7C7" d="M324.8,154.6l0,0.3l0.1,55.4c-8.3-5.6-16.1-11.2-18.3-13.4c-0.1-0.9-0.3-1.7-0.5-2.3
		c-0.4-1.5-0.7-2.6,0.4-5.9c3.1-9.4,9.3-25.1,19.6-41.5C325.2,151.5,324.8,154.3,324.8,154.6z M333.7,155.4
		c0.8-6.5,2.7-16.8,5.9-27.1c0,0,0,0,0,0l0,0c4.9-16,12.9-31.9,24.3-32.3c10.5-0.4,18.1,13.4,23.1,28.2c0,0.1,0.1,0.2,0.1,0.3
		c3.7,11.3,6,23.1,6.8,29.8l0,10.8l-60.2,0.1L333.7,155.4z M459.8,88.8c-1.2,1.5-2.9,4-5.2,7.1c-10.6,14.8-33.6,46.6-51.7,64.5
		l0-6.3l0-0.5c-0.1-0.6-1.8-14.6-6.5-29.5c1.1-1.3,2.7-3.3,4.7-5.7c0.9-1.1,1.9-2.4,3-3.7c1.1-1.3,2.3-2.6,3.5-4
		c2.4-2.7,5-5.7,7.6-8.6c2.6-2.9,5.3-5.7,7.8-8.5c2.5-2.7,4.8-5.3,6.9-7.3c4.2-4.1,7-6.9,7-6.9s-3.2,2.3-7.9,5.8c-2.4,1.7-5,4-8,6.3
		c-2.9,2.3-6,4.7-9,7.3c-3,2.6-6.1,5.2-8.9,7.6c-1.4,1.2-2.8,2.4-4.1,3.5c-1.2,1.1-2.4,2.2-3.5,3.2c-0.8,0.7-1.6,1.4-2.3,2.1
		c-4.3-10.8-9.3-18.5-15.1-23.1c9.6-8.3,30.1-22.2,46.7-31.4c23.7-13.2,42.6-15.6,44.6-12.4C474.8,56.4,467.4,78.6,459.8,88.8z"/>
	<polygon fill="#FFCE1B" points="369.8,204.6 369.8,177.4 375.9,184.2 393.9,184.2 393.9,204.5 	"/>
	<polygon fill="#FFCE1B" points="333.8,184.2 356.1,184.2 361,177.9 361,204.5 333.9,204.6 	"/>
</g>
</svg>
