<?xml version="1.0" encoding="utf-8"?>
<!-- Generator: Adobe Illustrator 18.0.0, SVG Export Plug-In . SVG Version: 6.00 Build 0)  -->
<!DOCTYPE svg PUBLIC "-//W3C//DTD SVG 1.1//EN" "http://www.w3.org/Graphics/SVG/1.1/DTD/svg11.dtd">
<svg version="1.1" id="Слой_1" xmlns="http://www.w3.org/2000/svg" xmlns:xlink="http://www.w3.org/1999/xlink" x="0px" y="0px"
	 viewBox="0 0 1920 1080" enable-background="new 0 0 1920 1080" xml:space="preserve">
<g>
	<path fill="#C7C7C7" d="M950.6,428.9l-37-22.2c22.2,50.6,35.8,107.4,35.8,166.7c0,227.2-184,411.1-411.1,411.1
		s-412.4-184-412.4-411.1s184-411.1,411.1-411.1c77.8,0,151.9,22.2,213.6,59.3l-18.5-45.7l38.3-44.4c-69.1-37-148.2-58-232.1-58
		C263,73.3,39.5,296.8,39.5,572.1s223.5,498.8,498.8,498.8s498.8-223.5,498.8-498.8c0-63-11.1-122.2-33.3-177.8L950.6,428.9z
		 M735.8,501.8c8.6,22.2,12.3,46.9,12.3,71.6c0,117.3-95.1,211.1-211.1,211.1c-117.3,0-211.1-95.1-211.1-211.1S421,362.2,537,362.2
		c34.6,0,67.9,8.6,96.3,23.5l66.7-63c-46.9-30.9-102.5-48.1-163-48.1c-165.4,0-298.8,134.6-298.8,298.8
		c0,165.4,134.6,298.8,298.8,298.8s298.8-134.6,298.8-298.8c0-45.7-9.9-88.9-28.4-127.2L735.8,501.8z"/>
	<path fill="#C7C7C7" d="M579.4,622.1c-16,13.6-34.6,21-54.3,21c-19.8,0-38.3-7.4-50.6-22.2c-25.9-29.6-19.8-75.3,13.6-103.7
		l28.4-25.9c-1.2,0-1.2,0-2.5,0c-55.6,0-100,44.4-100,100c0,55.6,44.4,100,100,100c53.1,0,96.3-40.7,100-93.8L579.4,622.1z"/>
	<path fill="#FFCE1B" d="M956.3,393.1L881,348.7l3.7,2.5L587.2,584.5c-18.5,16-43.2,17.3-56.8,2.5c-12.3-14.8-8.6-39.5,11.1-55.6
		l271.6-258L778.6,187l154.3-179l38.3,171.6L835.4,312.9l1.2,3.7l3.7,2.5L990.9,203l165.4,63L956.3,393.1z"/>
	<polygon fill="#C7C7C7" points="978.4,170.7 990.8,190.5 1095.7,106.5 	"/>
</g>
</svg>
