<?xml version="1.0" encoding="utf-8"?>
<!-- Generator: Adobe Illustrator 18.0.0, SVG Export Plug-In . SVG Version: 6.00 Build 0)  -->
<!DOCTYPE svg PUBLIC "-//W3C//DTD SVG 1.1//EN" "http://www.w3.org/Graphics/SVG/1.1/DTD/svg11.dtd">
<svg version="1.1" id="Layer_1" xmlns="http://www.w3.org/2000/svg" xmlns:xlink="http://www.w3.org/1999/xlink" x="0px" y="0px"
	 viewBox="0 0 110.9 64" enable-background="new 0 0 110.9 64" xml:space="preserve">
<g>
	<g>
		<g>
			<path fill="#C7C7C7" d="M80.8,26.2c-3.6,0-7,1-9.9,2.8l-4.9-7.1l4-7.8c1-0.4,1.9-1,2-2c0.2-1.1,0-1.9-0.5-2.5
				c-0.4-0.5-0.9-0.7-1.6-0.7c0,0,0,0,0,0c-0.1,0-0.3,0-0.7,0c-0.8,0-2.5,0-4.6,0.1c-1.7,0.1-3.2-0.1-4.3-0.2
				c-1.1-0.1-1.9-0.2-2.4-0.1c-1,0.2-1.9,0.8-2.3,1.6c-0.3,0.6-0.3,1.2,0,1.8c0,0,0,0,0,0.1c0.5,0.7,1.3,0.7,2.4,0.7
				c0.5,0,1.7,0,1.9,0.2c1.4,0.9,2.7,1.4,4.5,1.6c0.4,0.1,0.8,0.1,1.3,0.1c0.1,0,0.5,0,1.1,0L64,20.4l-33.3-7.2l1.8-5.9
				c0.2-0.6-0.2-1.3-0.8-1.5C31,5.6,30.3,6,30.2,6.6l-0.2,0.7l-3-3l5.3-1.5l4.6,3C36.9,6,37,6,37.1,6C38,6.4,39,6,39.4,5.1
				c0.4-0.9,0-1.9-0.9-2.3L33,0.5l-0.1,0c-0.2-0.1-0.5-0.1-0.8,0l-7.8,2.2c-0.2,0.1-0.4,0.2-0.5,0.3c-0.5,0.5-0.5,1.3,0,1.7L29,9.8
				c0,0,0.1,0.1,0.2,0.1l-0.8,2.7l-1.8-0.5c-0.7-0.2-1.3,0.2-1.5,0.9c-0.2,0.7,0.2,1.3,0.9,1.5l1.5,0.4l-0.6,2.9l-2.7,8.8
				c-1.4-0.3-2.8-0.5-4.3-0.5C9.4,26.1,1,34.5,1,44.8s8.4,18.8,18.8,18.8s18.8-8.4,18.8-18.8c0-8-5-14.9-12.1-17.5l2-6.5l0.6,0.7
				c0.4,0.7,0.9,1.3,1.5,2c0.1,0.1,0.2,0.2,0.3,0.2l16,19.1c-0.7,1-1,2.2-1,3.5c0,2.1,1,3.9,2.5,5.1l-1.8,3.5h-0.8
				c-1.3,0-2.3,0.9-2.3,2.1c0,1.1,1,2.1,2.3,2.1h3.4c1.3,0,2.3-0.9,2.3-2.1c0-1.1-1-2-2.2-2.1l1.2-2.4c0.5,0.2,1.1,0.2,1.7,0.3
				l0,0.1l11-1.4c2.6,7.2,9.5,12.3,17.6,12.3c10.4,0,18.8-8.4,18.8-18.8S91.1,26.2,80.8,26.2z M64.8,12.2c-1.3-0.2-2.2-0.5-2.9-0.9
				c0.8,0.1,1.7,0.1,2.6,0.1c2.1-0.1,3.7-0.1,4.5-0.1c0.2,0,0.3,0,0.4,0c0,0.1,0,0.2,0,0.3c-0.4,0.3-2,0.7-3.7,0.7
				C65.4,12.3,65.1,12.3,64.8,12.2z M36.1,44.8c0,9-7.3,16.3-16.3,16.3S3.4,53.8,3.4,44.8s7.3-16.3,16.3-16.3c1.2,0,2.5,0.1,3.6,0.4
				L20,40c-2.5,0.1-4.5,2.1-4.5,4.6c0,2.6,2.1,4.6,4.6,4.6s4.6-2.1,4.6-4.6c0-1.7-1-3.2-2.4-4l3.3-10.9C31.8,32,36.1,37.9,36.1,44.8
				z M22.3,44.6c0,1.2-1,2.2-2.2,2.2s-2.2-1-2.2-2.2c0-0.9,0.5-1.6,1.3-2L18.8,44c-0.2,0.6,0.2,1.3,0.8,1.5c0.1,0,0.2,0.1,0.4,0.1
				c0.5,0,1-0.3,1.2-0.9l0.5-1.6C22.1,43.4,22.3,44,22.3,44.6z M68.9,30.5c-2.9,2.4-5.1,5.6-6.1,9.4l-5.8-0.1l7.8-15.3L68.9,30.5z
				 M64.9,48.8c-0.1-0.5-0.2-1.1-0.3-1.6l11.9-0.9c0.1,0.4,0.3,0.7,0.5,1L64.9,48.8z M58.7,45.1C58.5,44,58,43,57.3,42.2l4.9,0.1
				C62.1,43.1,62,44,62,44.9L58.7,45.1z M52.9,42.2l-1.2,2.5l-1.6-1.9c0.6-0.4,1.4-0.6,2.2-0.6C52.5,42.2,52.7,42.2,52.9,42.2z
				 M55.1,43.3c0.5,0.5,0.9,1.2,1.1,2L54,45.5L55.1,43.3z M64.7,42.3l12.1,0.1c-0.2,0.4-0.4,0.9-0.5,1.4l-11.9,0.9
				C64.5,43.9,64.5,43.1,64.7,42.3z M80.9,46.8c-0.6,0-1.2-0.3-1.6-0.7l1.1-0.1c0.4,0,0.8-0.3,1-0.7c0.2-0.4,0.2-0.9-0.1-1.2
				l-1.1-1.5c0.2-0.1,0.4-0.1,0.6-0.1c1.2,0,2.2,1,2.2,2.2S82.1,46.8,80.9,46.8z M65.3,39.8c1-2.9,2.7-5.4,5-7.4l5.2,7.5L65.3,39.8z
				 M54.2,39.7l-1.7,0l0,0c-0.1,0-0.1,0-0.2,0c-1.4,0-2.7,0.4-3.7,1.2L31,20c-1.2-2-0.9-3.8-0.7-4.4c0.1,0,0.2,0,0.3,0
				c0,0,0.1,0,0.1,0l32.2,6.9L54.2,39.7z M48.2,46.2c0-0.5,0.1-1,0.3-1.5l2,2.3l-1,2.1C48.7,48.4,48.2,47.4,48.2,46.2z M52.7,48
				l3.3-0.2c-0.6,1.5-2.1,2.5-3.8,2.5c-0.2,0-0.5,0-0.7-0.1L52.7,48z M57.8,49.6c0.4-0.6,0.7-1.3,0.8-2.1l3.5-0.3
				c0.1,0.6,0.2,1.2,0.3,1.7L57.8,49.6z M80.8,61.3c-6.8,0-12.7-4.2-15.1-10.2l9.8-1.2l-3.6,4.2c-0.4,0.5-0.4,1.3,0.1,1.7
				c0.2,0.2,0.5,0.3,0.8,0.3c0.3,0,0.7-0.1,0.9-0.4l3.7-4.4c0.4-0.5,0.4-1.2-0.1-1.6l3.5-0.4c2.5-0.1,4.5-2.1,4.5-4.6
				c0-2.5-2.1-4.6-4.6-4.6v0l-2.4,0L72.3,31c2.5-1.5,5.4-2.4,8.5-2.4c9,0,16.3,7.3,16.3,16.3C97.1,54,89.8,61.3,80.8,61.3z"/>
			<path fill="#FFCE1B" d="M26.4,48.6c-0.5-0.4-1.3-0.4-1.7,0.1c-0.4,0.5-0.4,1.3,0.1,1.7l4.4,3.7c0.2,0.2,0.5,0.3,0.8,0.3
				c0.3,0,0.7-0.1,0.9-0.4c0.4-0.5,0.4-1.3-0.1-1.7L26.4,48.6z"/>
			<path fill="#FFCE1B" d="M24.9,40.7c0.3,0,0.7-0.1,0.9-0.4l3.7-4.3c0.4-0.5,0.4-1.3-0.1-1.7c-0.5-0.4-1.3-0.4-1.7,0.1l-3.7,4.3
				c-0.4,0.5-0.4,1.3,0.1,1.7C24.3,40.6,24.6,40.7,24.9,40.7z"/>
			<path fill="#FFCE1B" d="M14.5,49.7l-3.7,4.4c-0.4,0.5-0.4,1.3,0.1,1.7c0.2,0.2,0.5,0.3,0.8,0.3c0.3,0,0.7-0.1,0.9-0.4l3.7-4.4
				c0.4-0.5,0.4-1.3-0.1-1.7C15.7,49.1,15,49.2,14.5,49.7z"/>
			<path fill="#FFCE1B" d="M20.7,50.9c-0.7,0.1-1.2,0.6-1.1,1.3l0.4,5.8c0,0.6,0.6,1.1,1.2,1.1c0,0,0.1,0,0.1,0
				c0.7-0.1,1.2-0.6,1.1-1.3L22,52C21.9,51.3,21.3,50.8,20.7,50.9z"/>
			<path fill="#FFCE1B" d="M19,38.8l1.6-6.4l-0.1-0.6c0-0.7-0.6-1.2-1.3-1.1c-0.7,0-1.2,0.6-1.1,1.3l0.4,5.8
				C18.4,38.2,18.6,38.6,19,38.8z"/>
			<path fill="#FFCE1B" d="M26,44.5c0.1,0.6,0.6,1.1,1.2,1.1c0,0,0.1,0,0.1,0l5.8-0.5c0.7-0.1,1.2-0.6,1.1-1.3
				c-0.1-0.7-0.6-1.2-1.3-1.1l-5.8,0.5C26.5,43.2,26,43.8,26,44.5z"/>
			<path fill="#FFCE1B" d="M14.1,45.4c-0.1-0.7-0.6-1.2-1.3-1.1l-5.7,0.4C6.4,44.8,5.9,45.4,6,46c0,0.6,0.6,1.1,1.2,1.1
				c0,0,0.1,0,0.1,0l5.7-0.4C13.6,46.7,14.1,46.1,14.1,45.4z"/>
			<path fill="#FFCE1B" d="M13.8,41.1c0.2,0.2,0.5,0.3,0.8,0.3c0.3,0,0.7-0.1,0.9-0.4c0.4-0.5,0.4-1.3-0.1-1.7c0,0-3-2.5-4.4-3.7
				c-0.5-0.4-1.3-0.4-1.7,0.1c-0.4,0.5-0.4,1.3,0.1,1.7C10.9,38.6,13.8,41.1,13.8,41.1z"/>
			<path fill="#FFCE1B" d="M87.5,48.6c-0.5-0.4-1.3-0.4-1.7,0.1c-0.4,0.5-0.4,1.3,0.1,1.7l4.4,3.7c0.2,0.2,0.5,0.3,0.8,0.3
				c0.3,0,0.7-0.1,0.9-0.4c0.4-0.5,0.4-1.3-0.1-1.7L87.5,48.6z"/>
			<path fill="#FFCE1B" d="M86.9,40.2l3.7-4.4c0.4-0.5,0.4-1.3-0.1-1.7c-0.5-0.4-1.3-0.4-1.7,0.1L85,38.7c-0.4,0.5-0.4,1.3,0.1,1.7
				c0.2,0.2,0.5,0.3,0.8,0.3C86.3,40.7,86.6,40.5,86.9,40.2z"/>
			<path fill="#FFCE1B" d="M81.8,50.9c-0.7,0.1-1.2,0.6-1.1,1.3l0.5,5.7c0.1,0.6,0.6,1.1,1.2,1.1c0,0,0.1,0,0.1,0
				c0.7-0.1,1.2-0.6,1.1-1.3L83.1,52C83.1,51.3,82.5,50.8,81.8,50.9z"/>
			<path fill="#FFCE1B" d="M80.1,30.7c-0.7,0.1-1.2,0.6-1.1,1.3l0.5,5.8c0.1,0.6,0.6,1.1,1.2,1.1c0,0,0.1,0,0.1,0
				c0.7-0.1,1.2-0.6,1.1-1.3l-0.5-5.8C81.4,31.1,80.8,30.6,80.1,30.7z"/>
			<path fill="#FFCE1B" d="M94,42.6l-5.8,0.5c-0.7,0.1-1.2,0.7-1.1,1.3c0.1,0.6,0.6,1.1,1.2,1.1c0,0,0.1,0,0.1,0l5.8-0.5
				c0.7-0.1,1.2-0.7,1.1-1.3C95.3,43.1,94.7,42.6,94,42.6z"/>
			<path fill="#FFCE1B" d="M70.5,37.4c0.6,0.5,1.3,1.1,2.1,1.8l1,0l-2.8-3.9c-0.2,0.1-0.2,0.2-0.4,0.4C69.9,36.2,70,37,70.5,37.4z"
				/>
			<path fill="#FFCE1B" d="M41.5,29.6l5.6,6.4c0.2,0.3,0.6,0.4,0.9,0.4c0.3,0,0.6-0.1,0.8-0.3c0.5-0.4,0.6-1.2,0.1-1.7L43.4,28
				c-0.4-0.5-1.2-0.6-1.7-0.1S41.1,29.1,41.5,29.6z"/>
		</g>
	</g>
</g>
</svg>
