<?xml version="1.0" encoding="utf-8"?>
<!-- Generator: Adobe Illustrator 18.0.0, SVG Export Plug-In . SVG Version: 6.00 Build 0)  -->
<!DOCTYPE svg PUBLIC "-//W3C//DTD SVG 1.1//EN" "http://www.w3.org/Graphics/SVG/1.1/DTD/svg11.dtd">
<svg version="1.1" id="Слой_1" xmlns="http://www.w3.org/2000/svg" xmlns:xlink="http://www.w3.org/1999/xlink" x="0px" y="0px"
	 viewBox="0 0 765.3 211" enable-background="new 0 0 765.3 211" xml:space="preserve">
<path id="SVGID_x5F_1_x5F_" fill="none" d="M59.1,16.2c49-26.7,110.3-8.7,136.9,40.1c26.6,48.8,8.4,110-40.6,136.7
	c-49,26.7-110.3,8.7-136.9-40.1C-8.1,104.1,10.1,42.9,59.1,16.2z"/>
<text><textPath  xlink:href="#SVGID_x5F_1_x5F_" startOffset="92.9687%">
<tspan  fill="#FFCE1B" font-family="'Montserrat-Regular'" font-size="12.1802" letter-spacing="200.8">BEST SPORTS CLUB</tspan></textPath>
</text>
<g>
	<g>
		<path fill="#FFFFFF" d="M37.2,64.7c-1.7,3.6-1.6,7.6-1.4,11.3c0,0.7,0.1,1.4,0.2,2.2c0.2,1.9,0.3,3.9,0.1,5.9
			c1.6-2.3,3.7-4.5,6.3-6.5c1.6-1.2,3.2-2.5,4.6-3.8c3.1-2.9,5.1-5.6,6.3-8.7c0.2-0.4,0.3-0.8,0.4-1.2c-0.9,1.2-2.1,2.3-3.5,3.4
			c-1.2,1-2.5,1.9-3.8,2.8l-0.8,0.6c-3.1,2.2-5.3,4.8-6.8,7.9c-0.1,0.3-0.3,0.6-0.4,0.8l-0.1,0.3c-0.1,0.3-0.5,0.5-0.8,0.3
			c-0.1,0-0.1,0-0.2-0.1c-0.3-0.1-0.5-0.4-0.4-0.8c0-0.1,0-0.2,0-0.3c0-0.2,0.1-0.4,0.1-0.6c0.2-0.5,0.3-1,0.5-1.5
			c0.3-0.9,0.7-1.8,0.9-2.7c0.6-2.2,1.1-4.4,1.6-6.6l0.7-2.8c0.6-2.5,1.4-5,3.1-7.2C41,58.9,38.7,61.4,37.2,64.7z"/>
		<path fill="#FFFFFF" d="M33.2,135.4c3.9,3.5,8.4,6.3,12.8,9c0.7,0.4,1.4,0.9,2.1,1.3c-0.2-0.4-0.4-0.9-0.5-1.3
			c-0.5-1.2-1-2.4-1.3-3.6c-0.9-3.8-1.2-7.7-1.5-11.5c-0.1-1.2-0.2-2.5-0.3-3.7c-0.4-3.6-0.8-7.5-2-11.1c0,0,0,0,0,0
			c-0.1,1-0.2,2-0.4,3.1c-0.2,1.2-0.4,2.5-0.7,3.7c-0.3,1.5-0.6,3.1-0.8,4.6c-0.5,4.7,0.4,9,2.8,12.7c0.2,0.2,0.3,0.5,0.4,0.8
			l0.1,0.3c0.2,0.3,0,0.7-0.3,0.9c0,0-0.1,0.1-0.1,0.1c-0.3,0.2-0.7,0.2-0.9-0.1c-0.2-0.3-0.4-0.6-0.7-0.8c-0.5-0.6-0.9-1.1-1.3-1.8
			c-2.4-3.8-4.9-6.9-7.6-9.5c-1.6-1.5-3.1-3.1-4.6-4.8c-2-2.2-3.4-4.2-4.3-6.3c0,1.6,0.2,3.2,0.6,4.8
			C26.1,127.2,28.8,131.5,33.2,135.4z"/>
		<path fill="#FFFFFF" d="M41.1,152.1c3.8,3,7.7,4.8,11.8,5.6c3,0.5,6,1.1,8.9,1.6l2.1,0.4c-0.3-0.3-0.6-0.7-0.9-1
			c-2.4-2.9-3.9-6.2-5.4-10.4c-0.3-0.8-0.6-1.6-0.8-2.4c-0.7-2-1.4-4-2.2-6c-1.3-3-3.1-5.8-5.3-8.7c0.6,2.2,1,4.5,1.3,6.7
			c0.1,0.7,0.2,1.4,0.3,2.1c0.4,2.5,0.9,5.1,1.9,7.5c1.2,2.9,3.3,5.5,6.2,8c0.2,0.2,0.5,0.4,0.7,0.6c0.1,0.1,0.3,0.3,0.3,0.5
			c0,0.2,0,0.4-0.1,0.5c-0.1,0.1-0.1,0.1-0.2,0.2c-0.1,0.1-0.3,0.2-0.4,0.3c-0.2,0-0.3,0-0.5-0.1c-0.6-0.4-1.2-0.8-1.8-1.3
			c-0.6-0.4-1.3-0.9-1.9-1.3c-0.5-0.4-1-0.7-1.5-1.1c-1-0.8-1.9-1.5-2.9-2c-2.3-1.3-4.7-2.5-7-3.6c-1.2-0.6-2.3-1.2-3.5-1.8
			c-3.1-1.6-6.5-3.6-9.2-7C32.9,144.2,36.3,148.3,41.1,152.1z"/>
		<path fill="#FFFFFF" d="M24.8,93c-0.2,1-0.4,1.9-0.5,2.9c-0.4,3.3-0.2,6.9,0.7,10.9l0,0.2c0.6,2.7,1.2,5.4,2.7,7.6
			c0.9,1.4,2,2.8,3,4.1c0.5,0.7,1.1,1.4,1.6,2.1c1.1,1.4,2.1,2.9,3.2,4.3l0.9,1.2c-0.2-1.8-0.3-3.8,0.1-5.7c0.3-1.7,0.8-3.5,1.5-5.8
			c1.8-5.9,3.5-12.3,4-19.1c-0.4,1-1,2.1-1.7,3.2c-1.4,2.4-2.9,5-4.2,7.7c-2.1,4.6-2.4,9.1-1,13.5c0.1,0.2,0.1,0.5,0,0.6
			c0,0.3-0.2,0.6-0.5,0.7c-0.1,0-0.2,0.1-0.3,0.1c-0.3,0.1-0.6-0.1-0.8-0.4c-0.1-0.1-0.1-0.3-0.2-0.4c-0.1-0.3-0.3-0.7-0.4-1
			c-0.5-2.1-1-4.2-1.4-6.3l-0.1-0.3c-0.8-3.5-2.3-6.8-3.7-9.7C26.6,99.9,25.2,96.5,24.8,93z"/>
		<path fill="#FFFFFF" d="M45.6,61.9c-0.4,1.1-0.7,2.2-1,3.3c-0.2,0.6-0.3,1.2-0.5,1.8c0.2-0.1,0.3-0.3,0.5-0.4
			c1.1-0.9,2.2-1.9,3.3-2.8c1.9-1.6,3.6-3.4,5.1-5.5c2.2-3.1,4.6-6.1,6.8-8.9c0.1-0.1,0.2-0.2,0.3-0.3c-1.6,0.7-3.3,1.4-4.9,2.2
			C50.5,53.5,47.3,57.1,45.6,61.9z"/>
		<path fill="#FFFFFF" d="M140.6,177.1c4.6,0.2,8.8-1.1,13.1-3.9c0.7-0.5,1.4-1,2.1-1.5c-4.1,1.7-8.5,2-13.3,1.2
			c-4-0.7-7.6-2.4-10.8-3.9c-6.3-3-12.4-4.1-18.8-3.4c-1.3,0.1-2.6,0.3-3.8,0.8c-1.2,0.5-2.1,0.5-3.1,0.2c-2-0.7-4.2-1-7-1.1
			c-3-0.1-6.1,0.4-9.6,1.5c-3.4,1-6.7,2.5-9.8,3.8c-0.9,0.4-1.8,0.8-2.7,1.2c-4.6,2-9.5,2.4-14.6,1.5c-1-0.2-2.1-0.5-3.1-0.8
			c6.3,4.9,13.3,6.3,21,4c3.5-1,6.5-2.9,10-5.4l1.2-0.8c1.1-0.7,2.2-1.5,3.3-2.2c2.4-1.5,4.7-2.2,7.1-2c0.5,0,0.9,0.1,1.4,0.2
			c0.3,0.1,0.5,0.1,0.8,0.1c0.3,0.1,0.5,0.3,0.5,0.6c0,0.1,0,0.2,0,0.3c0,0.2-0.2,0.4-0.4,0.5c-6.6,3.1-12.7,7.4-18,12.7l0.8,0.7
			c0.5,0.4,1.1,0.9,1.6,1.3c3.5-4.6,8-8.6,13.7-12.4c0.9-0.6,1.9-1.1,2.9-1.6c0.4-0.2,0.8-0.4,1.2-0.6c0.8-0.4,1.7-0.4,2.5,0.1
			c0.4,0.2,0.8,0.4,1.1,0.7c0.3,0.2,0.7,0.4,1,0.5c5.9,3.5,10.7,8.3,14.2,12l1.1,1.1l0.8-0.7c0.5-0.5,1-0.9,1.5-1.4
			c-5.5-5.2-11.4-9.3-18.1-12.4c-0.2-0.1-0.4-0.4-0.4-0.6c0-0.3,0.2-0.5,0.4-0.6c1-0.3,2.7-0.5,4-0.5c0.5,0,1.1,0,1.6,0.1
			c1.9,0.3,3.5,1.3,4.8,2.2c0.6,0.4,1.3,0.9,1.9,1.3c1.9,1.3,3.9,2.7,6,3.9C132.6,175.8,136.5,176.9,140.6,177.1z"/>
		<path fill="#FFFFFF" d="M31.9,70.5c-3.7,5.8-4.9,12.2-3.5,19c0.4,2.1,1.2,4.2,2,6.2c0.2,0.6,0.5,1.2,0.7,1.8l0.1,0.2
			c0.7,1.9,1.4,3.8,1.9,5.7c1.1-3.1,2.7-5.7,4.1-7.8c0.8-1.2,1.7-2.4,2.5-3.6l1.3-1.9c1.9-2.6,3.7-5.5,4.7-8.8
			c0.2-0.8,0.5-1.6,0.7-2.4c-0.7,0.8-1.5,1.5-2.2,2.2c-1.4,1.3-3.3,3.1-5.1,4.9c-2.9,3.2-4.5,6.5-4.9,10.1c0,0.4-0.1,0.8-0.2,1.1
			l-0.1,0.3c-0.1,0.3-0.3,0.5-0.7,0.5c-0.1,0-0.2,0-0.3,0c-0.3-0.1-0.5-0.3-0.5-0.5c0-0.3-0.1-0.5-0.1-0.7l0.1-1.4
			c0.1-0.7,0.1-1.5,0.1-2.2c0-0.5,0.1-1,0.1-1.5c0.1-1.3,0.2-2.7,0.1-4c-0.1-2-0.4-4.1-0.6-6.1c-0.1-1.1-0.3-2.1-0.4-3.2
			C31.5,75.9,31.3,73.1,31.9,70.5C31.9,70.5,31.9,70.5,31.9,70.5z"/>
		<path fill="#FFFFFF" d="M188.6,93c-0.4,3.6-1.8,6.9-3.4,10.2l-0.1,0.2c-1.4,3-2.8,6.2-3.6,9.4l-0.4,1.6c-0.4,1.7-0.7,3.3-1.1,5
			c-0.1,0.3-0.2,0.7-0.3,1c-0.1,0.2-0.1,0.3-0.2,0.5c-0.1,0.3-0.4,0.5-0.7,0.4c-0.1,0-0.1,0-0.2-0.1c-0.3-0.1-0.6-0.4-0.6-0.6
			c0-0.2,0-0.5,0.1-0.7c1.4-4.3,1.1-8.9-1-13.4c-1.2-2.8-2.8-5.4-4.2-7.7c-0.7-1.1-1.2-2.2-1.7-3.2c0.5,6.9,2.3,13.5,4,19.1
			c0.5,1.7,1.1,3.7,1.5,5.8c0.4,1.9,0.3,3.8,0.1,5.7l1.3-1.7c0.9-1.3,1.8-2.5,2.8-3.7c0.5-0.7,1.1-1.5,1.7-2.2c1-1.3,2-2.6,2.9-3.9
			c1.5-2.2,2.1-5,2.7-7.6l0-0.2c0.9-4,1.1-7.6,0.7-10.9C189,94.9,188.8,93.9,188.6,93z"/>
		<path fill="#FFFFFF" d="M158.3,50.5c-1.9-0.9-3.8-1.7-5.7-2.4c0,0-0.1,0-0.1,0c0.8,0.8,1.7,1.6,2.5,2.4c0.3,0.3,0.5,0.6,0.7,0.9
			c3.3,5.1,7.4,9.8,12.2,13.8c0.6,0.5,1.1,0.9,1.7,1.4c-0.1-0.2-0.2-0.5-0.2-0.7c-0.6-1.9-1.3-3.8-2.1-5.6
			C165.4,55.7,162.4,52.4,158.3,50.5z"/>
		<path fill="#FFFFFF" d="M170.3,56.7c-0.3-0.2-0.7-0.5-1-0.7c2,2.5,2.9,5.6,3.6,8.3c0.8,3.2,1.7,6.4,2.6,9.5l0.1,0.3
			c0.2,0.8,0.5,1.5,0.9,2.3c0.2,0.4,0.3,0.8,0.5,1.2c0.1,0.3,0,0.6-0.3,0.8c-0.1,0-0.1,0.1-0.2,0.1c-0.3,0.2-0.7,0.1-0.9-0.2
			l-0.2-0.3c-0.2-0.3-0.3-0.5-0.4-0.8c-1-2.4-2.7-4.4-5.3-6.5c-1.2-1-2.5-1.9-3.8-2.7l-0.9-0.6c-1.8-1.2-3.6-2.6-5.1-4.3
			c0.9,2.8,2,4.9,3.6,6.6c1.6,1.7,3.5,3.3,5.3,4.8c0.7,0.6,1.3,1.1,1.9,1.6c2.1,1.7,4.3,3.4,6,5.5c0.3,0.4,0.6,0.7,0.8,1.1
			c-0.1-1.8,0-3.7,0-5.5l0-0.5c0.1-1.6,0.2-3.3,0.2-4.9C178,65.5,175.4,60.4,170.3,56.7z"/>
		<path fill="#FFFFFF" d="M183.6,138c-1.3,1.6-2.8,3.1-4.6,4.5c-2.7,2-5.7,3.5-8.7,5l-0.2,0.1c-4.7,2.3-8.8,4.5-12.3,7.9
			c-0.4,0.4-0.9,0.7-1.4,1c-0.2,0.1-0.4,0.2-0.6,0.3c-0.3,0.2-0.6,0.1-0.8-0.1c-0.1-0.1-0.1-0.2-0.2-0.3c-0.1-0.1-0.2-0.4-0.2-0.5
			c0-0.2,0.1-0.4,0.3-0.5l0.2-0.1c0.1-0.1,0.2-0.2,0.4-0.3c4.6-4.2,7.2-9,7.9-14.7c0.4-2.9,0.8-5.5,1.3-8c0.1-0.7,0.3-1.4,0.5-2.1
			c-2.3,3.2-4.6,6.6-5.9,10.4c-1,2.9-2,5.9-3,8.8c-1.5,4.1-3.2,7.2-5.4,9.7c1.2-0.2,2.3-0.5,3.4-0.7l2.9-0.6c0.7-0.1,1.3-0.3,2-0.4
			c1.6-0.3,3.2-0.6,4.7-1.1c2.5-0.7,5-2,7.8-3.9c5-3.4,8.7-7.4,11.1-12.3C183.1,139.5,183.4,138.7,183.6,138z"/>
		<path fill="#FFFFFF" d="M47.4,161.9c5.2,4.5,10.7,6.6,17.1,6.6l0.2,0c4.4,0,8.7-1,13-2.1c2.3-0.6,4.6-1.1,7-1.7
			c-4.9-1.3-8.7-3.5-11.8-6.7c-2.1-2.2-4.5-4.4-7.5-7.1c-1.3-1.1-2.6-2.2-4-3.3c1.2,2.3,2.5,4.7,3.7,7c2.5,4.8,6.1,7.6,10.9,8.5
			c0.4,0.1,0.7,0.2,1.1,0.3c0.1,0.1,0.2,0.1,0.4,0.2c0.3,0.1,0.5,0.4,0.4,0.8c0,0.1,0,0.2-0.1,0.3c-0.1,0.3-0.4,0.5-0.7,0.5l-0.4,0
			c-0.3,0-0.7,0-1-0.1c-0.7-0.1-1.3-0.3-2-0.4c-1.2-0.2-2.4-0.5-3.6-0.6c-2.6-0.3-5.3-0.5-7.9-0.7c-1.8-0.1-3.6-0.3-5.5-0.5
			c-2.9-0.3-5.4-0.8-7.9-1.7c-1.3-0.5-2.6-1.1-3.8-1.9C45.7,160.2,46.5,161.1,47.4,161.9z"/>
		<path fill="#FFFFFF" d="M190.3,115.5c-0.3,0.8-0.7,1.6-1.1,2.4c-1.5,2.6-3.5,5.2-6.4,7.9c-2.9,2.8-4.9,5.1-6.5,7.5
			c-1.2,1.7-2.4,3.4-3.5,5.1l-0.6,0.8c-0.2,0.2-0.3,0.3-0.5,0.4c-0.1,0-0.1,0.1-0.2,0.1c-0.2,0.2-0.6,0.2-0.9,0
			c-0.1-0.1-0.2-0.1-0.2-0.2c-0.2-0.2-0.2-0.5-0.1-0.7c0.1-0.2,0.2-0.3,0.2-0.4c2.9-4.6,3.8-9.5,2.9-15.2c-0.2-1-0.4-2.1-0.6-3.1
			c-0.4-2.1-0.9-4.2-1-6.4c-0.9,2.8-1.4,5.9-1.8,9.6l-0.2,1.9c-0.3,3.4-0.6,7-1,10.5c-0.4,3.5-1.2,6.6-2.5,9.3l0.8-0.5
			c2.7-1.7,5.3-3.5,7.9-5.3c1.9-1.3,3.5-2.4,4.9-3.7c5.8-5.2,9.1-10.9,10-17.5C190.2,117.1,190.3,116.3,190.3,115.5z"/>
		<path fill="#FFFFFF" d="M169.8,158.4c-1.1,0.8-2.4,1.4-3.7,1.9c-3.8,1.5-7.6,1.9-11.6,2.3l-1.2,0.1c-4.2,0.3-8.6,0.7-12.7,1.7
			c-0.6,0.1-1.2,0.2-1.9,0.3c-0.3,0-0.7,0.1-1.1,0.1c-0.3,0-0.5-0.1-0.7-0.3c-0.1-0.2-0.1-0.5,0.1-0.7c0.1-0.1,0.1-0.1,0.2-0.2
			c0.1-0.1,0.2-0.2,0.4-0.3l0.5-0.2c0.4-0.2,0.9-0.3,1.3-0.4c4.1-1.1,7.1-3.3,9.1-6.6c0.6-1,1.1-2.1,1.7-3.1l0.5-1
			c0.8-1.7,1.7-3.3,2.5-5c-0.5,0.4-1,0.8-1.4,1.2c-3.8,3.5-7.5,7-11.1,10.5c-2.2,2.2-4.8,3.8-7.6,4.8c-1,0.4-2.1,0.7-3.1,1l1.6,0.4
			c2.2,0.5,4.6,1,6.9,1.5c3.9,0.9,7.2,1.6,10.7,1.7c5,0.2,9.8-1.2,14.4-4.2C166.1,162.2,168.2,160.4,169.8,158.4z"/>
		<path fill="#FFFFFF" d="M181.3,81.4c-0.2,2.1-0.5,4.2-0.6,6.3c-0.1,1.3,0,2.5,0.1,3.8c0,0.6,0.1,1.1,0.1,1.7
			c0,0.5,0.1,1.1,0.1,1.6c0.1,0.7,0.1,1.3,0.1,2c0,0.2,0,0.4,0,0.6c0,0.3-0.3,0.6-0.5,0.6c-0.1,0-0.2,0-0.3,0
			c-0.3,0-0.6-0.2-0.7-0.5l-0.1-0.4c-0.1-0.3-0.2-0.7-0.2-1c-0.3-3.6-1.9-6.9-4.9-10.1c-1.8-1.9-3.6-3.6-5.1-4.9
			c-0.7-0.7-1.5-1.4-2.2-2.2c0.2,0.8,0.4,1.6,0.7,2.4c1,3.3,3,6.3,4.7,8.8l1.2,1.6c0.9,1.3,1.8,2.5,2.6,3.8c1.4,2.1,3,4.7,4.1,7.8
			c0.5-1.9,1.1-3.7,1.8-5.5l0.1-0.4c0.2-0.6,0.5-1.2,0.7-1.9c0.8-2,1.5-4.1,2-6.2c1.4-6.8,0.2-13.2-3.5-19c0,0,0,0,0,0
			c0.6,2.7,0.4,5.4,0.1,8C181.5,79.4,181.4,80.4,181.3,81.4z"/>
	</g>
</g>
<g>
	<path id="SVGID_x5F_2_x5F_" fill="none" d="M173.3,99.1c3.9,37-22.8,70.4-59.7,74.5c-36.9,4.1-70-22.5-73.9-59.6
		c-3.9-37,22.8-70.4,59.7-74.5C136.2,35.4,169.3,62.1,173.3,99.1z"/>
	<text>	<textPath  xlink:href="#SVGID_x5F_2_x5F_" startOffset="757.8127%">
<tspan  fill="#FFFFFF" font-family="'ChunkFive-Roman'" font-size="14.3358" letter-spacing="200.6">WINNER</tspan>	</textPath>
</text>
</g>
<path fill-rule="evenodd" clip-rule="evenodd" fill="#FFFFFF" d="M48.2,120c0-10.7,0-21.2,0-31.8c4.2-0.4,8.2-0.9,12.3-1.1
	c8.2-0.4,14.6-4,19.1-10.8c5.3-7.9,12.2-13.7,21.8-15.5c12.5-2.4,22.5,2.3,30.6,11.6c1.8,2.1,3.2,4.6,5.1,6.7
	c4.3,5.1,9.9,7.5,16.4,8c4.2,0.3,8.5,0.7,12.8,1.1c0,10.7,0,21.2,0,31.8c-4,0.4-7.9,0.9-11.8,1.1c-8.4,0.3-14.9,3.9-19.6,10.9
	c-4.5,6.8-10.3,11.9-18.1,14.4c-11.1,3.6-21,1.2-29.7-6.3c-3-2.6-5.5-5.8-7.9-9.1c-4.6-6.2-10.6-9.6-18.3-10
	C56.7,120.9,52.5,120.4,48.2,120z"/>
<path fill-rule="evenodd" clip-rule="evenodd" fill="none" stroke="#000000" stroke-width="1.0664" stroke-miterlimit="10" d="
	M136.2,102.2c-0.3-2-0.7-5.9-1.6-9.7c-1.4-5.8-4.1-10.9-8-15.5c-9.2-10.6-23.5-12.5-34.1-4.3c-6.1,4.7-10.1,10.8-12.2,18.2
	c-4,14-2.4,27.3,6.6,39.1c10.2,13.4,27.5,14.2,38.9,1.9C133.2,124.1,136,114.5,136.2,102.2z"/>
<path fill-rule="evenodd" clip-rule="evenodd" d="M154.9,98.4c-3.1-0.1-5.8,2.4-5.9,5.5c-0.1,3.1,2.4,5.8,5.5,5.9
	c3.1,0.1,5.8-2.5,5.9-5.6C160.5,101.1,158.1,98.5,154.9,98.4z"/>
<path fill-rule="evenodd" clip-rule="evenodd" d="M59.8,98.4c-3.2,0-5.8,2.5-5.8,5.6c0,3.1,2.5,5.7,5.6,5.8c3.3,0.1,5.8-2.4,5.7-5.8
	C65.4,101,62.9,98.4,59.8,98.4z"/>
<path fill-rule="evenodd" clip-rule="evenodd" fill="#FFCE1B" d="M132.5,102.4c-0.2,10.7-2.7,19.1-9,25.9c-10,10.7-25,9.9-33.9-1.7
	c-7.8-10.3-9.2-21.8-5.7-34c1.8-6.4,5.3-11.7,10.6-15.8c9.2-7.1,21.7-5.5,29.6,3.7c3.4,3.9,5.8,8.4,7,13.4
	C131.8,97.3,132.2,100.7,132.5,102.4z"/>
<g>
	<path fill-rule="evenodd" clip-rule="evenodd" d="M120.4,125.9c-1.7-1.3-3.5-1.6-5.3-0.6c-5.3,3-10.6,2.9-16-0.1
		c-1.8-1-3.6-0.6-5,0.9C101.3,133.3,114.2,133.2,120.4,125.9z"/>
	<path fill-rule="evenodd" clip-rule="evenodd" d="M94.1,82.3c1.7,1.4,3.4,1.5,5.3,0.6c1.4-0.7,2.8-1.4,4.2-1.7
		c3.8-1,7.5-0.5,11,1.5c2.4,1.3,4,1.2,5.7-0.4C114.8,75,100,75,94.1,82.3z"/>
</g>
<path fill-rule="evenodd" clip-rule="evenodd" fill="#FFCE1B" d="M154.9,98.4c3.1,0.1,5.6,2.7,5.5,5.9c-0.1,3.1-2.8,5.7-5.9,5.6
	c-3.1-0.1-5.6-2.8-5.5-5.9C149.2,100.8,151.8,98.3,154.9,98.4z"/>
<path fill-rule="evenodd" clip-rule="evenodd" fill="#FFCE1B" d="M59.8,98.4c3,0,5.6,2.6,5.6,5.6c0,3.4-2.4,5.8-5.7,5.8
	c-3.1-0.1-5.7-2.7-5.6-5.8C54.1,100.9,56.7,98.4,59.8,98.4z"/>
<polygon fill-rule="evenodd" clip-rule="evenodd" fill="#032E35" points="107.3,89 112.2,99 123.2,100.6 115.2,108.3 117.1,119.3 
	107.3,114.1 97.4,119.3 99.3,108.3 91.3,100.6 102.3,99 "/>
<text transform="matrix(1 0 0 1 250.998 157.0778)"><tspan x="0" y="0" fill="#FFFFFF" font-family="'Lato-Bold'" font-size="126">Sports</tspan><tspan x="472.2" y="0" fill="#FFCE1B" font-family="'Lato-Bold'" font-size="126">.</tspan></text>
</svg>
